<svg width="1880" height="1040" viewBox="0 0 1880 1040" fill="none" xmlns="http://www.w3.org/2000/svg">
  <defs>
    <filter id="shadow" x="-20%" y="-20%" width="140%" height="160%">
      <feDropShadow dx="0" dy="10" stdDeviation="18" flood-color="#111827" flood-opacity="0.08"/>
    </filter>
    <marker id="arrow-dark" viewBox="0 0 12 12" refX="10" refY="6" markerWidth="12" markerHeight="12" orient="auto-start-reverse">
      <path d="M1 1L11 6L1 11V1Z" fill="#0F172A"/>
    </marker>
    <marker id="arrow-purple" viewBox="0 0 12 12" refX="10" refY="6" markerWidth="12" markerHeight="12" orient="auto-start-reverse">
      <path d="M1 1L11 6L1 11V1Z" fill="#7C3AED"/>
    </marker>
    <style>
      .title { font: 700 30px Arial, Helvetica, sans-serif; fill: #0F172A; }
      .subtitle { font: 400 16px Arial, Helvetica, sans-serif; fill: #475569; }
      .section { font: 700 14px Arial, Helvetica, sans-serif; letter-spacing: 1.6px; }
      .box-title { font: 700 17px Arial, Helvetica, sans-serif; fill: #111827; }
      .box-copy { font: 400 12px Arial, Helvetica, sans-serif; fill: #334155; }
      .small-note { font: 600 11px Arial, Helvetica, sans-serif; fill: #374151; }
      .legend { font: 500 13px Arial, Helvetica, sans-serif; fill: #334155; }
      .body { font: 400 13px Arial, Helvetica, sans-serif; fill: #1F2937; }
    </style>
  </defs>

  <rect width="1880" height="1040" rx="32" fill="#FAFBFF"/>

  <text x="940" y="52" text-anchor="middle" class="title">BusyNow - Planned Production Architecture (AWS)</text>
  <text x="940" y="81" text-anchor="middle" class="subtitle">Target request flow with Redis or ElastiCache, graceful degradation, stale fallback, and outbound backpressure</text>

  <rect x="118" y="124" width="454" height="642" rx="24" stroke="#93C5FD" stroke-width="1.5" stroke-dasharray="2 6"/>
  <rect x="602" y="124" width="976" height="642" rx="24" stroke="#86EFAC" stroke-width="1.5" stroke-dasharray="2 6"/>
  <rect x="1604" y="124" width="182" height="642" rx="24" stroke="#C4B5FD" stroke-width="1.5" stroke-dasharray="2 6"/>

  <text x="345" y="160" text-anchor="middle" class="section" fill="#2563EB">EDGE</text>
  <line x1="324" y1="170" x2="366" y2="170" stroke="#2563EB" stroke-width="1.5"/>
  <text x="1090" y="160" text-anchor="middle" class="section" fill="#16A34A">APP</text>
  <line x1="1068" y1="170" x2="1112" y2="170" stroke="#16A34A" stroke-width="1.5"/>
  <text x="1695" y="160" text-anchor="middle" class="section" fill="#7C3AED">EXTERNAL</text>
  <line x1="1674" y1="170" x2="1716" y2="170" stroke="#7C3AED" stroke-width="1.5"/>

  <rect x="20" y="300" width="96" height="118" rx="14" fill="white" stroke="#334155" stroke-width="1.5" filter="url(#shadow)"/>
  <circle cx="68" cy="334" r="16" stroke="#334155" stroke-width="3"/>
  <path d="M50 385C52 368 60 360 68 360C76 360 84 368 86 385" stroke="#334155" stroke-width="3" stroke-linecap="round"/>
  <text x="68" y="404" text-anchor="middle" class="box-title" font-size="14">User</text>

  <rect x="186" y="248" width="300" height="188" rx="18" fill="white" stroke="#334155" stroke-width="1.5" filter="url(#shadow)"/>
  <circle cx="336" cy="296" r="27" stroke="#7C3AED" stroke-width="3"/>
  <circle cx="336" cy="274" r="4.8" fill="#7C3AED"/>
  <circle cx="320" cy="300" r="4.8" fill="#7C3AED"/>
  <circle cx="351" cy="312" r="4.8" fill="#7C3AED"/>
  <path d="M336 279L322 296M336 279L349 310M322 296L349 310" stroke="#7C3AED" stroke-width="2.2" stroke-linecap="round"/>
  <text x="336" y="355" text-anchor="middle" class="box-title">CloudFront</text>
  <text x="336" y="380" text-anchor="middle" class="box-copy">(CDN + Edge Cache + WAF)</text>
  <rect x="252" y="390" width="168" height="50" rx="14" fill="#F8F5FF" stroke="#8B5CF6" stroke-width="1.4" stroke-dasharray="4 4"/>
  <ellipse cx="290" cy="409" rx="15" ry="6" stroke="#7C3AED" stroke-width="2.2"/>
  <path d="M275 409V424C275 427 282 430 290 430C298 430 305 427 305 424V409" stroke="#7C3AED" stroke-width="2.2"/>
  <text x="352" y="417" text-anchor="middle" class="small-note">Edge Cache</text>
  <text x="352" y="435" text-anchor="middle" class="small-note">(TTL)</text>

  <rect x="242" y="486" width="184" height="68" rx="14" fill="white" stroke="#A78BFA" stroke-width="1.4" stroke-dasharray="4 4"/>
  <text x="334" y="512" text-anchor="middle" class="small-note">Cache hit reduces</text>
  <text x="334" y="532" text-anchor="middle" class="small-note">latency and asset cost</text>

  <rect x="548" y="586" width="170" height="120" rx="16" fill="white" stroke="#334155" stroke-width="1.5" filter="url(#shadow)"/>
  <path d="M596 626C596 613 620 613 620 626V658H596V626Z" stroke="#65A30D" stroke-width="2.4" fill="#ECFCCB"/>
  <path d="M594 626C594 614 622 614 622 626" stroke="#65A30D" stroke-width="2.4"/>
  <path d="M621 633L631 637" stroke="#65A30D" stroke-width="2.4" stroke-linecap="round"/>
  <text x="633" y="669" text-anchor="middle" class="box-title">S3</text>
  <text x="633" y="693" text-anchor="middle" class="box-copy">(Static Asset Hosting)</text>

  <rect x="618" y="286" width="168" height="150" rx="16" fill="white" stroke="#334155" stroke-width="1.5" filter="url(#shadow)"/>
  <circle cx="713" cy="320" r="11" stroke="#F97316" stroke-width="3"/>
  <circle cx="684" cy="350" r="11" stroke="#F97316" stroke-width="3"/>
  <rect x="721" y="343" width="18" height="18" rx="3" stroke="#F97316" stroke-width="3"/>
  <path d="M706 328L690 342M720 325L736 345" stroke="#F97316" stroke-width="2.4" stroke-linecap="round"/>
  <text x="702" y="392" text-anchor="middle" class="box-title">ALB</text>
  <text x="702" y="417" text-anchor="middle" class="box-copy">(API Traffic)</text>

  <rect x="804" y="286" width="186" height="150" rx="16" fill="white" stroke="#334155" stroke-width="1.5" filter="url(#shadow)"/>
  <rect x="874" y="320" width="28" height="32" stroke="#F97316" stroke-width="3"/>
  <line x1="880" y1="323" x2="880" y2="349" stroke="#F97316" stroke-width="2"/>
  <line x1="888" y1="323" x2="888" y2="349" stroke="#F97316" stroke-width="2"/>
  <line x1="896" y1="323" x2="896" y2="349" stroke="#F97316" stroke-width="2"/>
  <text x="897" y="386" text-anchor="middle" class="box-title">Stateless API Layer</text>
  <text x="897" y="412" text-anchor="middle" class="box-copy">(ECS Fargate Service)</text>

  <rect x="1008" y="286" width="176" height="150" rx="16" fill="white" stroke="#334155" stroke-width="1.5" filter="url(#shadow)"/>
  <path d="M1067 322L1096 344L1125 322" stroke="#7C3AED" stroke-width="3" stroke-linecap="round" stroke-linejoin="round"/>
  <path d="M1096 344V368" stroke="#7C3AED" stroke-width="3" stroke-linecap="round"/>
  <path d="M1071 369H1121" stroke="#7C3AED" stroke-width="3" stroke-linecap="round"/>
  <text x="1096" y="386" text-anchor="middle" class="box-title">Early Rate Limiter</text>
  <text x="1096" y="412" text-anchor="middle" class="box-copy">(Per-IP / Per-User)</text>

  <rect x="1202" y="286" width="190" height="150" rx="16" fill="white" stroke="#334155" stroke-width="1.5" filter="url(#shadow)"/>
  <ellipse cx="1297" cy="319" rx="24" ry="9" stroke="#7C3AED" stroke-width="3"/>
  <path d="M1273 319V349C1273 354 1284 359 1297 359C1310 359 1321 354 1321 349V319" stroke="#7C3AED" stroke-width="3"/>
  <path d="M1273 334C1273 339 1284 344 1297 344C1310 344 1321 339 1321 334" stroke="#7C3AED" stroke-width="3"/>
  <text x="1297" y="384" text-anchor="middle" class="box-title">Shared Response Cache</text>
  <text x="1297" y="410" text-anchor="middle" class="box-copy">(Redis / ElastiCache)</text>

  <rect x="1410" y="286" width="190" height="150" rx="16" fill="white" stroke="#334155" stroke-width="1.5" filter="url(#shadow)"/>
  <path d="M1468 323H1540" stroke="#7C3AED" stroke-width="3" stroke-linecap="round"/>
  <path d="M1478 314L1468 323L1478 332" stroke="#7C3AED" stroke-width="3" stroke-linecap="round" stroke-linejoin="round"/>
  <path d="M1530 314L1540 323L1530 332" stroke="#7C3AED" stroke-width="3" stroke-linecap="round" stroke-linejoin="round"/>
  <rect x="1494" y="341" width="20" height="24" rx="3" stroke="#7C3AED" stroke-width="3"/>
  <text x="1505" y="384" text-anchor="middle" class="box-title">Concurrency Guard</text>
  <text x="1505" y="410" text-anchor="middle" class="box-copy">(Backpressure)</text>

  <rect x="1620" y="286" width="150" height="150" rx="16" fill="white" stroke="#334155" stroke-width="1.5" filter="url(#shadow)"/>
  <path d="M1695 319C1711 319 1724 332 1724 348C1724 370 1695 394 1695 394C1695 394 1666 370 1666 348C1666 332 1679 319 1695 319Z" fill="#EEF2FF" stroke="#2563EB" stroke-width="2.4"/>
  <circle cx="1687" cy="343" r="8" fill="#34A853"/>
  <circle cx="1703" cy="343" r="8" fill="#FBBC05"/>
  <circle cx="1695" cy="356" r="8" fill="#EA4335"/>
  <text x="1695" y="386" text-anchor="middle" class="box-title">Google Places API</text>
  <text x="1695" y="412" text-anchor="middle" class="box-copy">(External Dependency)</text>

  <rect x="758" y="586" width="176" height="120" rx="16" fill="white" stroke="#334155" stroke-width="1.5" filter="url(#shadow)"/>
  <rect x="818" y="618" width="28" height="26" rx="6" stroke="#EF4444" stroke-width="3"/>
  <path d="M824 618V608C824 598 832 590 842 590C852 590 860 598 860 608V618" stroke="#EF4444" stroke-width="3" stroke-linecap="round"/>
  <text x="846" y="666" text-anchor="middle" class="box-title">AWS Secrets Manager</text>
  <text x="846" y="690" text-anchor="middle" class="box-copy">(Runtime Secrets)</text>

  <rect x="952" y="586" width="176" height="120" rx="16" fill="white" stroke="#334155" stroke-width="1.5" filter="url(#shadow)"/>
  <ellipse cx="1040" cy="620" rx="20" ry="7" stroke="#2563EB" stroke-width="2.6"/>
  <path d="M1020 620V650C1020 654 1029 659 1040 659C1051 659 1060 654 1060 650V620" stroke="#2563EB" stroke-width="2.6"/>
  <path d="M1020 635C1020 639 1029 644 1040 644C1051 644 1060 639 1060 635" stroke="#2563EB" stroke-width="2.6"/>
  <text x="1040" y="666" text-anchor="middle" class="box-title">Postgres</text>
  <text x="1040" y="690" text-anchor="middle" class="box-copy">(Required System of Record)</text>

  <rect x="1146" y="586" width="176" height="120" rx="16" fill="white" stroke="#334155" stroke-width="1.5" filter="url(#shadow)"/>
  <path d="M1194 634L1207 621L1219 631L1234 612L1248 628" stroke="#F97316" stroke-width="3" stroke-linecap="round" stroke-linejoin="round"/>
  <line x1="1189" y1="649" x2="1255" y2="649" stroke="#F97316" stroke-width="3" stroke-linecap="round"/>
  <text x="1234" y="666" text-anchor="middle" class="box-title">CloudWatch Logs</text>
  <text x="1234" y="690" text-anchor="middle" class="box-copy">(Structured JSON + Metrics)</text>

  <rect x="614" y="468" width="176" height="50" rx="12" fill="white" stroke="#A78BFA" stroke-width="1.4" stroke-dasharray="4 4"/>
  <text x="702" y="488" text-anchor="middle" class="small-note">Internal header enforced</text>
  <text x="702" y="506" text-anchor="middle" class="small-note">at the protected origin path</text>

  <rect x="1006" y="470" width="180" height="60" rx="14" fill="white" stroke="#A78BFA" stroke-width="1.4" stroke-dasharray="4 4"/>
  <text x="1096" y="492" text-anchor="middle" class="small-note">Rate limit before cache lookup</text>
  <text x="1096" y="512" text-anchor="middle" class="small-note">and before Google traffic grows</text>

  <rect x="1210" y="470" width="176" height="60" rx="14" fill="white" stroke="#A78BFA" stroke-width="1.4" stroke-dasharray="4 4"/>
  <text x="1298" y="492" text-anchor="middle" class="small-note">TTL cache plus stale fallback</text>
  <text x="1298" y="512" text-anchor="middle" class="small-note">when upstream calls fail</text>

  <rect x="1404" y="466" width="202" height="72" rx="14" fill="white" stroke="#A78BFA" stroke-width="1.4" stroke-dasharray="4 4"/>
  <text x="1505" y="488" text-anchor="middle" class="small-note">Queue or reject overflow.</text>
  <text x="1505" y="508" text-anchor="middle" class="small-note">If saturated, serve stale data</text>
  <text x="1505" y="528" text-anchor="middle" class="small-note">instead of calling Google.</text>

  <path d="M116 359H186" stroke="#0F172A" stroke-width="2.4" marker-end="url(#arrow-dark)"/>
  <path d="M486 359H618" stroke="#0F172A" stroke-width="2.4" marker-end="url(#arrow-dark)"/>
  <path d="M786 359H804" stroke="#0F172A" stroke-width="2.4" marker-end="url(#arrow-dark)"/>
  <path d="M990 359H1008" stroke="#0F172A" stroke-width="2.4" marker-end="url(#arrow-dark)"/>
  <path d="M1184 359H1202" stroke="#0F172A" stroke-width="2.4" marker-end="url(#arrow-dark)"/>
  <path d="M1392 359H1410" stroke="#0F172A" stroke-width="2.4" marker-end="url(#arrow-dark)"/>
  <path d="M1600 359H1620" stroke="#0F172A" stroke-width="2.4" marker-end="url(#arrow-dark)"/>

  <path d="M486 372V490C486 502 496 512 508 512H548V646" stroke="#0F172A" stroke-width="2.2" marker-end="url(#arrow-dark)"/>
  <path d="M897 436V536H846V586" stroke="#0F172A" stroke-width="2.2" marker-end="url(#arrow-dark)"/>
  <path d="M897 436V536H1040V586" stroke="#0F172A" stroke-width="2.2" marker-end="url(#arrow-dark)"/>
  <path d="M897 436V536H1234V586" stroke="#0F172A" stroke-width="2.2" marker-end="url(#arrow-dark)"/>

  <path d="M336 440V486" stroke="#7C3AED" stroke-width="2.2" stroke-dasharray="5 6" marker-end="url(#arrow-purple)"/>
  <path d="M1096 436V470" stroke="#7C3AED" stroke-width="2.2" stroke-dasharray="5 6" marker-end="url(#arrow-purple)"/>
  <path d="M1298 436V470" stroke="#7C3AED" stroke-width="2.2" stroke-dasharray="5 6" marker-end="url(#arrow-purple)"/>
  <path d="M1505 436V466" stroke="#7C3AED" stroke-width="2.2" stroke-dasharray="5 6" marker-end="url(#arrow-purple)"/>

  <rect x="238" y="818" width="1404" height="184" rx="18" fill="white" stroke="#CBD5E1" stroke-width="1.5" filter="url(#shadow)"/>
  <circle cx="292" cy="874" r="22" stroke="#F97316" stroke-width="3"/>
  <line x1="292" y1="852" x2="292" y2="836" stroke="#F97316" stroke-width="3" stroke-linecap="round"/>
  <line x1="292" y1="896" x2="292" y2="912" stroke="#F97316" stroke-width="3" stroke-linecap="round"/>
  <line x1="276" y1="860" x2="264" y2="850" stroke="#F97316" stroke-width="3" stroke-linecap="round"/>
  <line x1="308" y1="860" x2="320" y2="850" stroke="#F97316" stroke-width="3" stroke-linecap="round"/>
  <line x1="281" y1="890" x2="271" y2="900" stroke="#F97316" stroke-width="3" stroke-linecap="round"/>
  <line x1="303" y1="890" x2="313" y2="900" stroke="#F97316" stroke-width="3" stroke-linecap="round"/>
  <text x="352" y="860" class="box-title">How it works</text>
  <text x="352" y="888" class="body">Users reach BusyNow through CloudFront. Static assets are served from S3, while API requests continue to the ALB</text>
  <text x="352" y="912" class="body">and the ECS API layer. Requests are rate-limited before the shared Redis or ElastiCache layer is consulted.</text>
  <text x="352" y="936" class="body">If cached or stale data exists, BusyNow can avoid a Google call. If upstream calls are still needed, the concurrency</text>
  <text x="352" y="960" class="body">guard adds backpressure so load spikes or Google failures do not turn into runaway cost or cascading failure.</text>

  <line x1="1300" y1="874" x2="1352" y2="874" stroke="#0F172A" stroke-width="2.4" marker-end="url(#arrow-dark)"/>
  <text x="1372" y="879" class="legend">Request / Response Flow</text>
  <line x1="1300" y1="916" x2="1352" y2="916" stroke="#7C3AED" stroke-width="2.2" stroke-dasharray="5 6" marker-end="url(#arrow-purple)"/>
  <text x="1372" y="921" class="legend">Cache / Fallback Behavior</text>
  <line x1="1300" y1="958" x2="1352" y2="958" stroke="#94A3B8" stroke-width="1.8" stroke-dasharray="2 6"/>
  <text x="1372" y="963" class="legend">Control / Dependency</text>
</svg>
